<svg width="267" height="107" viewBox="0 0 267 107" fill="none" xmlns="http://www.w3.org/2000/svg">
<g filter="url(#filter0_d_459_390)">
<path d="M25.2873 17.293H38.6349L48.8472 80H38.9932L37.2016 67.5482V67.7273H26.0039L24.2123 80H15.075L25.2873 17.293ZM36.037 59.2171L31.6475 28.222H31.4684L27.1685 59.2171H36.037ZM53.6279 17.293H63.4818V43.7195L76.0232 17.293H85.8772L74.142 40.3154L86.0563 80H75.7545L67.4234 52.0506L63.4818 60.0233V80H53.6279V17.293ZM103.564 80.8958C98.7265 80.8958 95.0238 79.5222 92.4558 76.7751C89.8878 74.0279 88.6038 70.146 88.6038 65.1295V32.1635C88.6038 27.147 89.8878 23.2651 92.4558 20.5179C95.0238 17.7708 98.7265 16.3972 103.564 16.3972C108.401 16.3972 112.104 17.7708 114.672 20.5179C117.24 23.2651 118.524 27.147 118.524 32.1635V65.1295C118.524 70.146 117.24 74.0279 114.672 76.7751C112.104 79.5222 108.401 80.8958 103.564 80.8958ZM103.564 71.9377C106.968 71.9377 108.67 69.8773 108.67 65.7566V31.5365C108.67 27.4157 106.968 25.3553 103.564 25.3553C100.16 25.3553 98.4578 27.4157 98.4578 31.5365V65.7566C98.4578 69.8773 100.16 71.9377 103.564 71.9377ZM127.167 80.3583C125.376 80.3583 123.853 80.2389 122.599 80V71.0419C123.554 71.2807 124.629 71.4002 125.823 71.4002C127.794 71.4002 129.257 70.9224 130.213 69.9669C131.169 68.9516 131.646 67.4287 131.646 65.3982V17.293H141.5V65.1295C141.5 70.2655 140.306 74.0876 137.917 76.5959C135.588 79.1042 132.005 80.3583 127.167 80.3583ZM162.789 80.8958C157.952 80.8958 154.249 79.5222 151.681 76.7751C149.113 74.0279 147.829 70.146 147.829 65.1295V32.1635C147.829 27.147 149.113 23.2651 151.681 20.5179C154.249 17.7708 157.952 16.3972 162.789 16.3972C167.626 16.3972 171.329 17.7708 173.897 20.5179C176.465 23.2651 177.749 27.147 177.749 32.1635V65.1295C177.749 70.146 176.465 74.0279 173.897 76.7751C171.329 79.5222 167.626 80.8958 162.789 80.8958ZM162.789 71.9377C166.193 71.9377 167.895 69.8773 167.895 65.7566V31.5365C167.895 27.4157 166.193 25.3553 162.789 25.3553C159.385 25.3553 157.683 27.4157 157.683 31.5365V65.7566C157.683 69.8773 159.385 71.9377 162.789 71.9377ZM184.413 17.293H199.015C204.091 17.293 207.794 18.4874 210.123 20.8763C212.452 23.2054 213.617 26.8185 213.617 31.7156V35.5676C213.617 42.0772 211.467 46.198 207.167 47.9299V48.109C209.556 48.8257 211.228 50.2888 212.183 52.4985C213.199 54.7082 213.706 57.6644 213.706 61.3671V72.3856C213.706 74.1772 213.766 75.6404 213.885 76.7751C214.005 77.85 214.304 78.925 214.781 80H204.748C204.39 78.9847 204.151 78.0292 204.032 77.1334C203.912 76.2376 203.852 74.6251 203.852 72.296V60.8296C203.852 57.963 203.375 55.9623 202.419 54.8276C201.523 53.6929 199.941 53.1256 197.671 53.1256H194.267V80H184.413V17.293ZM197.85 44.1674C199.821 44.1674 201.284 43.6598 202.24 42.6446C203.255 41.6293 203.763 39.9273 203.763 37.5384V32.701C203.763 30.4316 203.345 28.7893 202.509 27.774C201.732 26.7588 200.478 26.2512 198.746 26.2512H194.267V44.1674H197.85ZM220.543 17.293H232.905L242.491 54.8276H242.67V17.293H251.449V80H241.326L229.501 34.2239H229.322V80H220.543V17.293Z" fill="url(#paint0_linear_459_390)"/>
</g>
<defs>
<filter id="filter0_d_459_390" x="-1" y="-11" width="272" height="137" filterUnits="userSpaceOnUse" color-interpolation-filters="sRGB">
<feFlood flood-opacity="0" result="BackgroundImageFix"/>
<feColorMatrix in="SourceAlpha" type="matrix" values="0 0 0 0 0 0 0 0 0 0 0 0 0 0 0 0 0 0 127 0" result="hardAlpha"/>
<feOffset dy="4"/>
<feGaussianBlur stdDeviation="7.5"/>
<feComposite in2="hardAlpha" operator="out"/>
<feColorMatrix type="matrix" values="0 0 0 0 0 0 0 0 0 0 0 0 0 0 0 0 0 0 1 0"/>
<feBlend mode="normal" in2="BackgroundImageFix" result="effect1_dropShadow_459_390"/>
<feBlend mode="normal" in="SourceGraphic" in2="effect1_dropShadow_459_390" result="shape"/>
</filter>
<linearGradient id="paint0_linear_459_390" x1="135" y1="17" x2="135" y2="80" gradientUnits="userSpaceOnUse">
<stop stop-color="#00F09A"/>
<stop offset="1" stop-color="#00B355"/>
</linearGradient>
</defs>
</svg>
