<svg width="24" height="24" viewBox="0 0 24 24" fill="none" xmlns="http://www.w3.org/2000/svg">
<path d="M12.94 20.0995C13.187 19.9854 13.4082 19.8221 13.59 19.6195C13.9128 19.3075 14.1444 18.9134 14.26 18.4795C14.4825 17.6781 14.9385 16.961 15.57 16.4195C15.448 15.8328 15.4756 15.2248 15.6504 14.6516C15.8251 14.0784 16.1414 13.5584 16.57 13.1395C17.1359 12.4902 17.9345 12.0896 18.7933 12.0241C19.6521 11.9586 20.5022 12.2335 21.16 12.7895C21.7166 13.449 21.9918 14.3007 21.9263 15.1612C21.8608 16.0216 21.4599 16.8219 20.81 17.3895C20.2159 17.995 19.4395 18.3885 18.6 18.5095H18.24C17.6985 18.5112 17.1678 18.3586 16.71 18.0695C16.4613 18.3294 16.2854 18.6502 16.2 18.9995C15.9845 19.7608 15.5703 20.4511 15 20.9995C14.6546 21.3608 14.2484 21.6587 13.8 21.8795C13.6628 21.946 13.5123 21.9802 13.36 21.9795C13.1333 21.9805 12.913 21.9043 12.7352 21.7636C12.5575 21.6229 12.4328 21.426 12.3816 21.2052C12.3305 20.9843 12.3559 20.7526 12.4537 20.5481C12.5515 20.3436 12.7159 20.1783 12.92 20.0795L12.94 20.0995ZM17.68 16.3295C17.7758 16.4103 17.8881 16.4691 18.009 16.5019C18.1299 16.5348 18.2565 16.5408 18.38 16.5195C18.7817 16.4703 19.1552 16.2871 19.44 15.9995C20.01 15.4395 20.17 14.6095 19.8 14.2295C19.6449 14.0951 19.4451 14.0238 19.24 14.0295C18.7736 14.0388 18.329 14.2289 18 14.5595C17.7014 14.84 17.5073 15.2139 17.45 15.6195C17.4325 15.7476 17.4441 15.8779 17.4839 16.0008C17.5238 16.1237 17.5908 16.2361 17.68 16.3295ZM2.67998 10.2095C3.02836 10.0931 3.34147 9.89005 3.58998 9.61953C3.91277 9.30749 4.1444 8.91336 4.25998 8.47953C4.48249 7.67806 4.93852 6.96095 5.56998 6.41954C5.45418 5.82863 5.48972 5.21803 5.6733 4.64455C5.85689 4.07107 6.18255 3.55334 6.61998 3.13954C7.18588 2.49023 7.98446 2.08958 8.84327 2.02409C9.70207 1.9586 10.5522 2.23354 11.21 2.78953C11.7666 3.44898 12.0418 4.30071 11.9763 5.16116C11.9108 6.02161 11.5099 6.82189 10.86 7.38953C10.2529 8.00478 9.45725 8.39906 8.59998 8.50954H8.23998C7.69854 8.51118 7.16783 8.35856 6.70998 8.06953C6.46133 8.32943 6.28545 8.65016 6.19998 8.99954C5.98097 9.75933 5.56732 10.4487 4.99998 10.9995C4.52536 11.4873 3.94317 11.8571 3.29998 12.0795C3.19593 12.11 3.08836 12.1268 2.97998 12.1295C2.77033 12.1301 2.56582 12.0647 2.39535 11.9427C2.22487 11.8207 2.09706 11.6482 2.02998 11.4495C1.95447 11.1989 1.98025 10.9287 2.10178 10.6968C2.22331 10.465 2.4309 10.29 2.67998 10.2095V10.2095ZM7.67998 6.32954C7.77577 6.41028 7.88805 6.46912 8.00897 6.50194C8.12988 6.53476 8.2565 6.54077 8.37998 6.51954C8.78173 6.47031 9.15516 6.28712 9.43998 5.99954C10.01 5.43954 10.17 4.60954 9.79998 4.22954C9.64491 4.09515 9.44509 4.02379 9.23998 4.02954C8.77358 4.03885 8.32902 4.22886 7.99998 4.55954C7.70136 4.83999 7.50735 5.21391 7.44998 5.61953C7.43252 5.74756 7.44413 5.87787 7.48395 6.00078C7.52376 6.1237 7.59077 6.23607 7.67998 6.32954V6.32954ZM2.28998 20.4495C2.48619 19.6695 2.89016 18.9572 3.45891 18.3885C4.02767 17.8197 4.73994 17.4157 5.51998 17.2195C6.04611 17.0703 6.52486 16.7878 6.90998 16.3995C7.29914 16.0224 7.57606 15.5447 7.70998 15.0195C7.9272 14.2379 8.34515 13.5267 8.92231 12.9565C9.49946 12.3864 10.2157 11.9772 11 11.7695C11.5253 11.6361 12.0031 11.3591 12.38 10.9695C12.7715 10.5886 13.0516 10.108 13.19 9.57954C13.3772 8.89144 13.7193 8.25525 14.19 7.71953C14.0304 7.23649 13.9659 6.72711 14 6.21953C14.1368 5.15482 14.6303 4.16786 15.4 3.41954C16.152 2.64045 17.1463 2.13979 18.22 1.99954C18.7286 1.94854 19.2422 2.01186 19.7232 2.18488C20.2042 2.3579 20.6404 2.63624 21 2.99954C21.3633 3.35912 21.6416 3.79536 21.8146 4.27635C21.9876 4.75734 22.051 5.27092 22 5.77954C21.8631 6.84425 21.3696 7.83121 20.6 8.57954C19.8479 9.35862 18.8537 9.85928 17.78 9.99953H17.35C16.6368 10.0149 15.9369 9.80498 15.35 9.39953C15.2123 9.61967 15.1078 9.85891 15.04 10.1095C14.8045 10.9696 14.3485 11.7533 13.7171 12.3829C13.0856 13.0126 12.3007 13.4665 11.44 13.6995C11.001 13.82 10.6011 14.0532 10.2801 14.376C9.95907 14.6988 9.72805 15.0999 9.60998 15.5395C9.37694 16.4019 8.9219 17.1881 8.29024 17.8198C7.65857 18.4515 6.87235 18.9065 6.00998 19.1395C5.57222 19.2626 5.17495 19.4996 4.85872 19.8264C4.5425 20.1532 4.31863 20.558 4.20998 20.9995C4.1701 21.1572 4.11657 21.3111 4.04998 21.4595C3.96629 21.6211 3.84012 21.7567 3.68506 21.8519C3.52999 21.947 3.35191 21.9981 3.16998 21.9995C3.01834 21.9941 2.86908 21.9602 2.72998 21.8995C2.48999 21.7868 2.30461 21.5833 2.21459 21.3339C2.12458 21.0845 2.13731 20.8096 2.24998 20.5695C2.24998 20.5695 2.27998 20.4695 2.28998 20.4495V20.4495ZM16.36 7.63953C17 8.26953 18.28 8.04954 19.17 7.16954C19.6186 6.74058 19.9108 6.17381 20 5.55954C20.0334 5.34608 20.0194 5.12789 19.9589 4.92048C19.8984 4.71307 19.7929 4.52154 19.65 4.35954C19.3775 4.1118 19.0178 3.98233 18.65 3.99954C17.9562 4.03147 17.3011 4.32858 16.82 4.82954C16.375 5.25993 16.0864 5.82654 16 6.43954C15.9679 6.65372 15.9835 6.87236 16.0457 7.07981C16.108 7.28725 16.2153 7.47839 16.36 7.63953V7.63953Z" fill="#FCFCFD"/>
</svg>
